<svg width="135" height="36" viewBox="0 0 135 36" fill="none" xmlns="http://www.w3.org/2000/svg">
<mask id="path-1-outside-1_11_2" maskUnits="userSpaceOnUse" x="1" y="10" width="113" height="20" fill="black">
<rect fill="white" x="1" y="10" width="113" height="20"/>
<path d="M2.21533 29V10.75H4.96533V29H2.21533ZM14.8472 29.25C12.5972 29.25 10.8638 28.6667 9.64717 27.5C8.4305 26.3333 7.82217 24.6667 7.82217 22.5C7.82217 20.4 8.3805 18.75 9.49717 17.55C10.6305 16.35 12.1805 15.75 14.1472 15.75C16.0472 15.75 17.5055 16.3167 18.5222 17.45C19.5555 18.5833 20.0722 20.1917 20.0722 22.275C20.0722 22.4917 20.0638 22.7333 20.0472 23C20.0472 23.2667 20.0388 23.475 20.0222 23.625H9.32217V21.5H17.9722L17.5472 22.15C17.5472 20.7333 17.2638 19.6833 16.6972 19C16.1305 18.3 15.2805 17.95 14.1472 17.95C12.9472 17.95 12.0305 18.3167 11.3972 19.05C10.7805 19.7833 10.4722 20.85 10.4722 22.25V23C10.4722 24.35 10.8222 25.3583 11.5222 26.025C12.2388 26.675 13.3138 27 14.7472 27C15.4472 27 16.1888 26.9333 16.9722 26.8C17.7722 26.65 18.4805 26.4583 19.0972 26.225L19.4472 28.4C18.8138 28.6667 18.0888 28.875 17.2722 29.025C16.4722 29.175 15.6638 29.25 14.8472 29.25ZM25.4603 29L20.8603 16H23.8103L27.3353 27.05H27.3853L30.9103 16H33.8603L29.2603 29H25.4603ZM41.7153 29.25C39.4653 29.25 37.732 28.6667 36.5153 27.5C35.2987 26.3333 34.6903 24.6667 34.6903 22.5C34.6903 20.4 35.2487 18.75 36.3653 17.55C37.4987 16.35 39.0487 15.75 41.0153 15.75C42.9153 15.75 44.3737 16.3167 45.3903 17.45C46.4237 18.5833 46.9403 20.1917 46.9403 22.275C46.9403 22.4917 46.932 22.7333 46.9153 23C46.9153 23.2667 46.907 23.475 46.8903 23.625H36.1903V21.5H44.8403L44.4153 22.15C44.4153 20.7333 44.132 19.6833 43.5653 19C42.9987 18.3 42.1487 17.95 41.0153 17.95C39.8153 17.95 38.8987 18.3167 38.2653 19.05C37.6487 19.7833 37.3403 20.85 37.3403 22.25V23C37.3403 24.35 37.6903 25.3583 38.3903 26.025C39.107 26.675 40.182 27 41.6153 27C42.3153 27 43.057 26.9333 43.8403 26.8C44.6403 26.65 45.3487 26.4583 45.9653 26.225L46.3153 28.4C45.682 28.6667 44.957 28.875 44.1403 29.025C43.3403 29.175 42.532 29.25 41.7153 29.25ZM49.7505 29V10.75H52.5005V29H49.7505ZM58.4323 29L54.9323 16H57.8823L60.0823 26.375H60.1323L62.3573 16H66.0073L68.2323 26.375H68.2823L70.4823 16H73.4323L69.9323 29H66.4323L64.2073 18.875H64.1573L61.9323 29H58.4323ZM81.6147 29.25C79.3647 29.25 77.6314 28.6667 76.4147 27.5C75.1981 26.3333 74.5897 24.6667 74.5897 22.5C74.5897 20.4 75.1481 18.75 76.2647 17.55C77.3981 16.35 78.9481 15.75 80.9147 15.75C82.8147 15.75 84.2731 16.3167 85.2897 17.45C86.3231 18.5833 86.8397 20.1917 86.8397 22.275C86.8397 22.4917 86.8314 22.7333 86.8147 23C86.8147 23.2667 86.8064 23.475 86.7897 23.625H76.0897V21.5H84.7397L84.3147 22.15C84.3147 20.7333 84.0314 19.6833 83.4647 19C82.8981 18.3 82.0481 17.95 80.9147 17.95C79.7147 17.95 78.7981 18.3167 78.1647 19.05C77.5481 19.7833 77.2397 20.85 77.2397 22.25V23C77.2397 24.35 77.5897 25.3583 78.2897 26.025C79.0064 26.675 80.0814 27 81.5147 27C82.2147 27 82.9564 26.9333 83.7397 26.8C84.5397 26.65 85.2481 26.4583 85.8647 26.225L86.2147 28.4C85.5814 28.6667 84.8564 28.875 84.0397 29.025C83.2397 29.175 82.4314 29.25 81.6147 29.25ZM89.4499 29V16H92.0499L92.0749 18.5H92.1249C92.5416 17.9167 93.0416 17.425 93.6249 17.025C94.2249 16.6083 94.8916 16.2917 95.6249 16.075C96.3749 15.8583 97.1499 15.75 97.9499 15.75V18.125C96.8832 18.125 95.9082 18.3333 95.0249 18.75C94.1582 19.1667 93.4666 19.725 92.9499 20.425C92.4332 21.125 92.1749 21.9 92.1749 22.75V29H89.4499ZM100.089 29V10.75H102.814V21.35H102.864L108.589 16H112.064L105.189 22.25L112.339 29H108.864L102.864 23.125H102.814V29H100.089Z"/>
</mask>
<path d="M2.21533 29V10.75H4.96533V29H2.21533ZM14.8472 29.25C12.5972 29.25 10.8638 28.6667 9.64717 27.5C8.4305 26.3333 7.82217 24.6667 7.82217 22.5C7.82217 20.4 8.3805 18.75 9.49717 17.55C10.6305 16.35 12.1805 15.75 14.1472 15.75C16.0472 15.75 17.5055 16.3167 18.5222 17.45C19.5555 18.5833 20.0722 20.1917 20.0722 22.275C20.0722 22.4917 20.0638 22.7333 20.0472 23C20.0472 23.2667 20.0388 23.475 20.0222 23.625H9.32217V21.5H17.9722L17.5472 22.15C17.5472 20.7333 17.2638 19.6833 16.6972 19C16.1305 18.3 15.2805 17.95 14.1472 17.95C12.9472 17.95 12.0305 18.3167 11.3972 19.05C10.7805 19.7833 10.4722 20.85 10.4722 22.25V23C10.4722 24.35 10.8222 25.3583 11.5222 26.025C12.2388 26.675 13.3138 27 14.7472 27C15.4472 27 16.1888 26.9333 16.9722 26.8C17.7722 26.65 18.4805 26.4583 19.0972 26.225L19.4472 28.4C18.8138 28.6667 18.0888 28.875 17.2722 29.025C16.4722 29.175 15.6638 29.25 14.8472 29.25ZM25.4603 29L20.8603 16H23.8103L27.3353 27.05H27.3853L30.9103 16H33.8603L29.2603 29H25.4603ZM41.7153 29.25C39.4653 29.25 37.732 28.6667 36.5153 27.5C35.2987 26.3333 34.6903 24.6667 34.6903 22.5C34.6903 20.4 35.2487 18.75 36.3653 17.55C37.4987 16.35 39.0487 15.75 41.0153 15.75C42.9153 15.75 44.3737 16.3167 45.3903 17.45C46.4237 18.5833 46.9403 20.1917 46.9403 22.275C46.9403 22.4917 46.932 22.7333 46.9153 23C46.9153 23.2667 46.907 23.475 46.8903 23.625H36.1903V21.5H44.8403L44.4153 22.15C44.4153 20.7333 44.132 19.6833 43.5653 19C42.9987 18.3 42.1487 17.95 41.0153 17.95C39.8153 17.95 38.8987 18.3167 38.2653 19.05C37.6487 19.7833 37.3403 20.85 37.3403 22.25V23C37.3403 24.35 37.6903 25.3583 38.3903 26.025C39.107 26.675 40.182 27 41.6153 27C42.3153 27 43.057 26.9333 43.8403 26.8C44.6403 26.65 45.3487 26.4583 45.9653 26.225L46.3153 28.4C45.682 28.6667 44.957 28.875 44.1403 29.025C43.3403 29.175 42.532 29.25 41.7153 29.25ZM49.7505 29V10.75H52.5005V29H49.7505ZM58.4323 29L54.9323 16H57.8823L60.0823 26.375H60.1323L62.3573 16H66.0073L68.2323 26.375H68.2823L70.4823 16H73.4323L69.9323 29H66.4323L64.2073 18.875H64.1573L61.9323 29H58.4323ZM81.6147 29.25C79.3647 29.25 77.6314 28.6667 76.4147 27.5C75.1981 26.3333 74.5897 24.6667 74.5897 22.5C74.5897 20.4 75.1481 18.75 76.2647 17.55C77.3981 16.35 78.9481 15.75 80.9147 15.75C82.8147 15.75 84.2731 16.3167 85.2897 17.45C86.3231 18.5833 86.8397 20.1917 86.8397 22.275C86.8397 22.4917 86.8314 22.7333 86.8147 23C86.8147 23.2667 86.8064 23.475 86.7897 23.625H76.0897V21.5H84.7397L84.3147 22.15C84.3147 20.7333 84.0314 19.6833 83.4647 19C82.8981 18.3 82.0481 17.95 80.9147 17.95C79.7147 17.95 78.7981 18.3167 78.1647 19.05C77.5481 19.7833 77.2397 20.85 77.2397 22.25V23C77.2397 24.35 77.5897 25.3583 78.2897 26.025C79.0064 26.675 80.0814 27 81.5147 27C82.2147 27 82.9564 26.9333 83.7397 26.8C84.5397 26.65 85.2481 26.4583 85.8647 26.225L86.2147 28.4C85.5814 28.6667 84.8564 28.875 84.0397 29.025C83.2397 29.175 82.4314 29.25 81.6147 29.25ZM89.4499 29V16H92.0499L92.0749 18.5H92.1249C92.5416 17.9167 93.0416 17.425 93.6249 17.025C94.2249 16.6083 94.8916 16.2917 95.6249 16.075C96.3749 15.8583 97.1499 15.75 97.9499 15.75V18.125C96.8832 18.125 95.9082 18.3333 95.0249 18.75C94.1582 19.1667 93.4666 19.725 92.9499 20.425C92.4332 21.125 92.1749 21.9 92.1749 22.75V29H89.4499ZM100.089 29V10.75H102.814V21.35H102.864L108.589 16H112.064L105.189 22.25L112.339 29H108.864L102.864 23.125H102.814V29H100.089Z" fill="white"/>
<path d="M2.21533 29H1.71533V29.5H2.21533V29ZM2.21533 10.75V10.25H1.71533V10.75H2.21533ZM4.96533 10.75H5.46533V10.25H4.96533V10.75ZM4.96533 29V29.5H5.46533V29H4.96533ZM2.71533 29V10.75H1.71533V29H2.71533ZM2.21533 11.25H4.96533V10.25H2.21533V11.25ZM4.46533 10.75V29H5.46533V10.75H4.46533ZM4.96533 28.5H2.21533V29.5H4.96533V28.5ZM9.64717 27.5L9.30111 27.8609L9.64717 27.5ZM9.49717 17.55L9.13365 17.2067L9.13113 17.2094L9.49717 17.55ZM18.5222 17.45L18.15 17.7839L18.1527 17.7869L18.5222 17.45ZM20.0472 23L19.5481 22.9688L19.5472 22.9844V23H20.0472ZM20.0222 23.625V24.125H20.4697L20.5191 23.6802L20.0222 23.625ZM9.32217 23.625H8.82217V24.125H9.32217V23.625ZM9.32217 21.5V21H8.82217V21.5H9.32217ZM17.9722 21.5L18.3907 21.7736L18.8965 21H17.9722V21.5ZM17.5472 22.15H17.0472V23.8284L17.9657 22.4236L17.5472 22.15ZM16.6972 19L16.3085 19.3146L16.3123 19.3192L16.6972 19ZM11.3972 19.05L11.0187 18.7232L11.0145 18.7282L11.3972 19.05ZM11.5222 26.025L11.1772 26.3872L11.1863 26.3954L11.5222 26.025ZM16.9722 26.8L17.0561 27.293L17.0643 27.2914L16.9722 26.8ZM19.0972 26.225L19.5908 26.1456L19.4934 25.5405L18.9202 25.7574L19.0972 26.225ZM19.4472 28.4L19.6412 28.8608L20.0032 28.7084L19.9408 28.3206L19.4472 28.4ZM17.2722 29.025L17.1818 28.5332L17.18 28.5336L17.2722 29.025ZM14.8472 28.75C12.6818 28.75 11.0891 28.1899 9.99323 27.1391L9.30111 27.8609C10.6386 29.1434 12.5125 29.75 14.8472 29.75V28.75ZM9.99323 27.1391C8.90099 26.0918 8.32217 24.5714 8.32217 22.5H7.32217C7.32217 24.762 7.96001 26.5749 9.30111 27.8609L9.99323 27.1391ZM8.32217 22.5C8.32217 20.4896 8.85481 18.9743 9.8632 17.8906L9.13113 17.2094C7.9062 18.5257 7.32217 20.3104 7.32217 22.5H8.32217ZM9.86067 17.8933C10.8816 16.8123 12.2895 16.25 14.1472 16.25V15.25C12.0715 15.25 10.3794 15.8877 9.13366 17.2067L9.86067 17.8933ZM14.1472 16.25C15.943 16.25 17.2508 16.7815 18.15 17.7839L18.8944 17.1161C17.7602 15.8518 16.1513 15.25 14.1472 15.25V16.25ZM18.1527 17.7869C19.0759 18.7994 19.5722 20.2711 19.5722 22.275H20.5722C20.5722 20.1122 20.0351 18.3673 18.8916 17.1131L18.1527 17.7869ZM19.5722 22.275C19.5722 22.4792 19.5643 22.7102 19.5481 22.9688L20.5462 23.0312C20.5634 22.7564 20.5722 22.5041 20.5722 22.275H19.5722ZM19.5472 23C19.5472 23.2599 19.5389 23.4469 19.5252 23.5698L20.5191 23.6802C20.5388 23.5031 20.5472 23.2734 20.5472 23H19.5472ZM20.0222 23.125H9.32217V24.125H20.0222V23.125ZM9.82217 23.625V21.5H8.82217V23.625H9.82217ZM9.32217 22H17.9722V21H9.32217V22ZM17.5537 21.2264L17.1287 21.8764L17.9657 22.4236L18.3907 21.7736L17.5537 21.2264ZM18.0472 22.15C18.0472 20.682 17.7562 19.4937 17.082 18.6808L16.3123 19.3192C16.7715 19.8729 17.0472 20.7847 17.0472 22.15H18.0472ZM17.0858 18.6854C16.4003 17.8386 15.3888 17.45 14.1472 17.45V18.45C15.1722 18.45 15.8607 18.7614 16.3085 19.3146L17.0858 18.6854ZM14.1472 17.45C12.8395 17.45 11.7692 17.8543 11.0188 18.7232L11.7756 19.3768C12.2918 18.779 13.0549 18.45 14.1472 18.45V17.45ZM11.0145 18.7282C10.2938 19.5852 9.97217 20.7852 9.97217 22.25H10.9722C10.9722 20.9148 11.2672 19.9815 11.7798 19.3718L11.0145 18.7282ZM9.97217 22.25V23H10.9722V22.25H9.97217ZM9.97217 23C9.97217 24.4313 10.3442 25.5936 11.1773 26.3871L11.867 25.6629C11.3002 25.1231 10.9722 24.2687 10.9722 23H9.97217ZM11.1863 26.3954C12.0306 27.1612 13.2482 27.5 14.7472 27.5V26.5C13.3795 26.5 12.4471 26.1888 11.8581 25.6546L11.1863 26.3954ZM14.7472 27.5C15.4787 27.5 16.2487 27.4303 17.0561 27.2929L16.8883 26.3071C16.129 26.4363 15.4156 26.5 14.7472 26.5V27.5ZM17.0643 27.2914C17.8868 27.1372 18.6244 26.9385 19.2741 26.6926L18.9202 25.7574C18.3366 25.9782 17.6575 26.1628 16.88 26.3086L17.0643 27.2914ZM18.6035 26.3044L18.9535 28.4794L19.9408 28.3206L19.5908 26.1456L18.6035 26.3044ZM19.2531 27.9392C18.6592 28.1893 17.97 28.3885 17.1818 28.5332L17.3625 29.5168C18.2077 29.3615 18.9685 29.1441 19.6412 28.8608L19.2531 27.9392ZM17.18 28.5336C16.4105 28.6778 15.633 28.75 14.8472 28.75V29.75C15.6946 29.75 16.5338 29.6722 17.3643 29.5164L17.18 28.5336ZM25.4603 29L24.9889 29.1668L25.1068 29.5H25.4603V29ZM20.8603 16V15.5H20.153L20.3889 16.1668L20.8603 16ZM23.8103 16L24.2866 15.848L24.1756 15.5H23.8103V16ZM27.3353 27.05L26.8589 27.202L26.9699 27.55H27.3353V27.05ZM27.3853 27.05V27.55H27.7506L27.8616 27.202L27.3853 27.05ZM30.9103 16V15.5H30.5449L30.4339 15.848L30.9103 16ZM33.8603 16L34.3316 16.1668L34.5676 15.5H33.8603V16ZM29.2603 29V29.5H29.6137L29.7316 29.1668L29.2603 29ZM25.9316 28.8332L21.3316 15.8332L20.3889 16.1668L24.9889 29.1668L25.9316 28.8332ZM20.8603 16.5H23.8103V15.5H20.8603V16.5ZM23.3339 16.152L26.8589 27.202L27.8116 26.898L24.2866 15.848L23.3339 16.152ZM27.3353 27.55H27.3853V26.55H27.3353V27.55ZM27.8616 27.202L31.3866 16.152L30.4339 15.848L26.9089 26.898L27.8616 27.202ZM30.9103 16.5H33.8603V15.5H30.9103V16.5ZM33.3889 15.8332L28.7889 28.8332L29.7316 29.1668L34.3316 16.1668L33.3889 15.8332ZM29.2603 28.5H25.4603V29.5H29.2603V28.5ZM36.5153 27.5L36.1693 27.8609L36.5153 27.5ZM36.3653 17.55L36.0018 17.2067L35.9993 17.2094L36.3653 17.55ZM45.3903 17.45L45.0181 17.7839L45.0209 17.7869L45.3903 17.45ZM46.9153 23L46.4163 22.9688L46.4153 22.9844V23H46.9153ZM46.8903 23.625V24.125H47.3379L47.3873 23.6802L46.8903 23.625ZM36.1903 23.625H35.6903V24.125H36.1903V23.625ZM36.1903 21.5V21H35.6903V21.5H36.1903ZM44.8403 21.5L45.2588 21.7736L45.7646 21H44.8403V21.5ZM44.4153 22.15H43.9153V23.8284L44.8338 22.4236L44.4153 22.15ZM43.5653 19L43.1767 19.3146L43.1805 19.3192L43.5653 19ZM38.2653 19.05L37.8869 18.7232L37.8827 18.7282L38.2653 19.05ZM38.3903 26.025L38.0454 26.3872L38.0544 26.3954L38.3903 26.025ZM43.8403 26.8L43.9242 27.293L43.9325 27.2914L43.8403 26.8ZM45.9653 26.225L46.459 26.1456L46.3616 25.5405L45.7884 25.7574L45.9653 26.225ZM46.3153 28.4L46.5094 28.8608L46.8714 28.7084L46.809 28.3206L46.3153 28.4ZM44.1403 29.025L44.05 28.5332L44.0482 28.5336L44.1403 29.025ZM41.7153 28.75C39.55 28.75 37.9573 28.1899 36.8614 27.1391L36.1693 27.8609C37.5067 29.1434 39.3807 29.75 41.7153 29.75V28.75ZM36.8614 27.1391C35.7692 26.0918 35.1903 24.5714 35.1903 22.5H34.1903C34.1903 24.762 34.8282 26.5749 36.1693 27.8609L36.8614 27.1391ZM35.1903 22.5C35.1903 20.4896 35.723 18.9743 36.7314 17.8906L35.9993 17.2094C34.7744 18.5257 34.1903 20.3104 34.1903 22.5H35.1903ZM36.7288 17.8933C37.7498 16.8123 39.1577 16.25 41.0153 16.25V15.25C38.9396 15.25 37.2476 15.8877 36.0018 17.2067L36.7288 17.8933ZM41.0153 16.25C42.8112 16.25 44.119 16.7815 45.0181 17.7839L45.7625 17.1161C44.6284 15.8518 43.0195 15.25 41.0153 15.25V16.25ZM45.0209 17.7869C45.9441 18.7994 46.4403 20.2711 46.4403 22.275H47.4403C47.4403 20.1122 46.9033 18.3673 45.7598 17.1131L45.0209 17.7869ZM46.4403 22.275C46.4403 22.4792 46.4325 22.7102 46.4163 22.9688L47.4144 23.0312C47.4315 22.7564 47.4403 22.5041 47.4403 22.275H46.4403ZM46.4153 23C46.4153 23.2599 46.407 23.4469 46.3934 23.5698L47.3873 23.6802C47.407 23.5031 47.4153 23.2734 47.4153 23H46.4153ZM46.8903 23.125H36.1903V24.125H46.8903V23.125ZM36.6903 23.625V21.5H35.6903V23.625H36.6903ZM36.1903 22H44.8403V21H36.1903V22ZM44.4218 21.2264L43.9968 21.8764L44.8338 22.4236L45.2588 21.7736L44.4218 21.2264ZM44.9153 22.15C44.9153 20.682 44.6243 19.4937 43.9502 18.6808L43.1805 19.3192C43.6397 19.8729 43.9153 20.7847 43.9153 22.15H44.9153ZM43.954 18.6854C43.2685 17.8386 42.257 17.45 41.0153 17.45V18.45C42.0403 18.45 42.7289 18.7614 43.1767 19.3146L43.954 18.6854ZM41.0153 17.45C39.7076 17.45 38.6373 17.8543 37.8869 18.7232L38.6437 19.3768C39.16 18.779 39.923 18.45 41.0153 18.45V17.45ZM37.8827 18.7282C37.162 19.5852 36.8403 20.7852 36.8403 22.25H37.8403C37.8403 20.9148 38.1353 19.9815 38.648 19.3718L37.8827 18.7282ZM36.8403 22.25V23H37.8403V22.25H36.8403ZM36.8403 23C36.8403 24.4313 37.2123 25.5936 38.0455 26.3871L38.7352 25.6629C38.1683 25.1231 37.8403 24.2687 37.8403 23H36.8403ZM38.0544 26.3954C38.8988 27.1612 40.1163 27.5 41.6153 27.5V26.5C40.2477 26.5 39.3152 26.1888 38.7262 25.6546L38.0544 26.3954ZM41.6153 27.5C42.3469 27.5 43.1168 27.4303 43.9242 27.2929L43.7564 26.3071C42.9972 26.4363 42.2838 26.5 41.6153 26.5V27.5ZM43.9325 27.2914C44.755 27.1372 45.4926 26.9385 46.1423 26.6926L45.7884 25.7574C45.2047 25.9782 44.5257 26.1628 43.7482 26.3086L43.9325 27.2914ZM45.4717 26.3044L45.8217 28.4794L46.809 28.3206L46.459 26.1456L45.4717 26.3044ZM46.1213 27.9392C45.5274 28.1893 44.8382 28.3885 44.05 28.5332L44.2307 29.5168C45.0758 29.3615 45.8366 29.1441 46.5094 28.8608L46.1213 27.9392ZM44.0482 28.5336C43.2787 28.6778 42.5012 28.75 41.7153 28.75V29.75C42.5628 29.75 43.402 29.6722 44.2325 29.5164L44.0482 28.5336ZM49.7505 29H49.2505V29.5H49.7505V29ZM49.7505 10.75V10.25H49.2505V10.75H49.7505ZM52.5005 10.75H53.0005V10.25H52.5005V10.75ZM52.5005 29V29.5H53.0005V29H52.5005ZM50.2505 29V10.75H49.2505V29H50.2505ZM49.7505 11.25H52.5005V10.25H49.7505V11.25ZM52.0005 10.75V29H53.0005V10.75H52.0005ZM52.5005 28.5H49.7505V29.5H52.5005V28.5ZM58.4323 29L57.9495 29.13L58.0491 29.5H58.4323V29ZM54.9323 16V15.5H54.2799L54.4495 16.13L54.9323 16ZM57.8823 16L58.3714 15.8963L58.2874 15.5H57.8823V16ZM60.0823 26.375L59.5932 26.4787L59.6772 26.875H60.0823V26.375ZM60.1323 26.375V26.875H60.5365L60.6212 26.4798L60.1323 26.375ZM62.3573 16V15.5H61.9532L61.8684 15.8952L62.3573 16ZM66.0073 16L66.4962 15.8952L66.4115 15.5H66.0073V16ZM68.2323 26.375L67.7434 26.4798L67.8282 26.875H68.2323V26.375ZM68.2823 26.375V26.875H68.6874L68.7714 26.4787L68.2823 26.375ZM70.4823 16V15.5H70.0772L69.9932 15.8963L70.4823 16ZM73.4323 16L73.9151 16.13L74.0847 15.5H73.4323V16ZM69.9323 29V29.5H70.3155L70.4151 29.13L69.9323 29ZM66.4323 29L65.944 29.1073L66.0303 29.5H66.4323V29ZM64.2073 18.875L64.6957 18.7677L64.6094 18.375H64.2073V18.875ZM64.1573 18.875V18.375H63.7553L63.669 18.7677L64.1573 18.875ZM61.9323 29V29.5H62.3344L62.4207 29.1073L61.9323 29ZM58.9151 28.87L55.4151 15.87L54.4495 16.13L57.9495 29.13L58.9151 28.87ZM54.9323 16.5H57.8823V15.5H54.9323V16.5ZM57.3932 16.1037L59.5932 26.4787L60.5714 26.2713L58.3714 15.8963L57.3932 16.1037ZM60.0823 26.875H60.1323V25.875H60.0823V26.875ZM60.6212 26.4798L62.8462 16.1048L61.8684 15.8952L59.6434 26.2702L60.6212 26.4798ZM62.3573 16.5H66.0073V15.5H62.3573V16.5ZM65.5184 16.1048L67.7434 26.4798L68.7212 26.2702L66.4962 15.8952L65.5184 16.1048ZM68.2323 26.875H68.2823V25.875H68.2323V26.875ZM68.7714 26.4787L70.9714 16.1037L69.9932 15.8963L67.7932 26.2713L68.7714 26.4787ZM70.4823 16.5H73.4323V15.5H70.4823V16.5ZM72.9495 15.87L69.4495 28.87L70.4151 29.13L73.9151 16.13L72.9495 15.87ZM69.9323 28.5H66.4323V29.5H69.9323V28.5ZM66.9207 28.8927L64.6957 18.7677L63.719 18.9823L65.944 29.1073L66.9207 28.8927ZM64.2073 18.375H64.1573V19.375H64.2073V18.375ZM63.669 18.7677L61.444 28.8927L62.4207 29.1073L64.6457 18.9823L63.669 18.7677ZM61.9323 28.5H58.4323V29.5H61.9323V28.5ZM76.4147 27.5L76.0687 27.8609L76.4147 27.5ZM76.2647 17.55L75.9012 17.2067L75.8987 17.2094L76.2647 17.55ZM85.2897 17.45L84.9175 17.7839L84.9203 17.7869L85.2897 17.45ZM86.8147 23L86.3157 22.9688L86.3147 22.9844V23H86.8147ZM86.7897 23.625V24.125H87.2373L87.2867 23.6802L86.7897 23.625ZM76.0897 23.625H75.5897V24.125H76.0897V23.625ZM76.0897 21.5V21H75.5897V21.5H76.0897ZM84.7397 21.5L85.1582 21.7736L85.6641 21H84.7397V21.5ZM84.3147 22.15H83.8147V23.8284L84.7332 22.4236L84.3147 22.15ZM83.4647 19L83.0761 19.3146L83.0799 19.3192L83.4647 19ZM78.1647 19.05L77.7863 18.7232L77.7821 18.7282L78.1647 19.05ZM78.2897 26.025L77.9448 26.3872L77.9538 26.3954L78.2897 26.025ZM83.7397 26.8L83.8237 27.293L83.8319 27.2914L83.7397 26.8ZM85.8647 26.225L86.3584 26.1456L86.261 25.5405L85.6878 25.7574L85.8647 26.225ZM86.2147 28.4L86.4088 28.8608L86.7708 28.7084L86.7084 28.3206L86.2147 28.4ZM84.0397 29.025L83.9494 28.5332L83.9476 28.5336L84.0397 29.025ZM81.6147 28.75C79.4494 28.75 77.8567 28.1899 76.7608 27.1391L76.0687 27.8609C77.4062 29.1434 79.2801 29.75 81.6147 29.75V28.75ZM76.7608 27.1391C75.6686 26.0918 75.0897 24.5714 75.0897 22.5H74.0897C74.0897 24.762 74.7276 26.5749 76.0687 27.8609L76.7608 27.1391ZM75.0897 22.5C75.0897 20.4896 75.6224 18.9743 76.6308 17.8906L75.8987 17.2094C74.6738 18.5257 74.0897 20.3104 74.0897 22.5H75.0897ZM76.6283 17.8933C77.6492 16.8123 79.0571 16.25 80.9147 16.25V15.25C78.839 15.25 77.147 15.8877 75.9012 17.2067L76.6283 17.8933ZM80.9147 16.25C82.7106 16.25 84.0184 16.7815 84.9176 17.7839L85.6619 17.1161C84.5278 15.8518 82.9189 15.25 80.9147 15.25V16.25ZM84.9203 17.7869C85.8435 18.7994 86.3397 20.2711 86.3397 22.275H87.3397C87.3397 20.1122 86.8027 18.3673 85.6592 17.1131L84.9203 17.7869ZM86.3397 22.275C86.3397 22.4792 86.3319 22.7102 86.3157 22.9688L87.3138 23.0312C87.3309 22.7564 87.3397 22.5041 87.3397 22.275H86.3397ZM86.3147 23C86.3147 23.2599 86.3065 23.4469 86.2928 23.5698L87.2867 23.6802C87.3064 23.5031 87.3147 23.2734 87.3147 23H86.3147ZM86.7897 23.125H76.0897V24.125H86.7897V23.125ZM76.5897 23.625V21.5H75.5897V23.625H76.5897ZM76.0897 22H84.7397V21H76.0897V22ZM84.3213 21.2264L83.8963 21.8764L84.7332 22.4236L85.1582 21.7736L84.3213 21.2264ZM84.8147 22.15C84.8147 20.682 84.5237 19.4937 83.8496 18.6808L83.0799 19.3192C83.5391 19.8729 83.8147 20.7847 83.8147 22.15H84.8147ZM83.8534 18.6854C83.1679 17.8386 82.1564 17.45 80.9147 17.45V18.45C81.9398 18.45 82.6283 18.7614 83.0761 19.3146L83.8534 18.6854ZM80.9147 17.45C79.607 17.45 78.5367 17.8543 77.7863 18.7232L78.5432 19.3768C79.0594 18.779 79.8225 18.45 80.9147 18.45V17.45ZM77.7821 18.7282C77.0614 19.5852 76.7397 20.7852 76.7397 22.25H77.7397C77.7397 20.9148 78.0347 19.9815 78.5474 19.3718L77.7821 18.7282ZM76.7397 22.25V23H77.7397V22.25H76.7397ZM76.7397 23C76.7397 24.4313 77.1117 25.5936 77.9449 26.3871L78.6346 25.6629C78.0677 25.1231 77.7397 24.2687 77.7397 23H76.7397ZM77.9538 26.3954C78.7982 27.1612 80.0158 27.5 81.5147 27.5V26.5C80.1471 26.5 79.2146 26.1888 78.6257 25.6546L77.9538 26.3954ZM81.5147 27.5C82.2463 27.5 83.0162 27.4303 83.8236 27.2929L83.6558 26.3071C82.8966 26.4363 82.1832 26.5 81.5147 26.5V27.5ZM83.8319 27.2914C84.6544 27.1372 85.392 26.9385 86.0417 26.6926L85.6878 25.7574C85.1041 25.9782 84.4251 26.1628 83.6476 26.3086L83.8319 27.2914ZM85.3711 26.3044L85.7211 28.4794L86.7084 28.3206L86.3584 26.1456L85.3711 26.3044ZM86.0207 27.9392C85.4268 28.1893 84.7376 28.3885 83.9494 28.5332L84.1301 29.5168C84.9752 29.3615 85.736 29.1441 86.4088 28.8608L86.0207 27.9392ZM83.9476 28.5336C83.1781 28.6778 82.4006 28.75 81.6147 28.75V29.75C82.4622 29.75 83.3014 29.6722 84.1319 29.5164L83.9476 28.5336ZM89.4499 29H88.9499V29.5H89.4499V29ZM89.4499 16V15.5H88.9499V16H89.4499ZM92.0499 16L92.5499 15.995L92.5449 15.5H92.0499V16ZM92.0749 18.5L91.5749 18.505L91.5799 19H92.0749V18.5ZM92.1249 18.5V19H92.3822L92.5318 18.7906L92.1249 18.5ZM93.6249 17.025L93.9077 17.4374L93.9101 17.4357L93.6249 17.025ZM95.6249 16.075L95.4861 15.5946L95.4832 15.5955L95.6249 16.075ZM97.9499 15.75H98.4499V15.25H97.9499V15.75ZM97.9499 18.125V18.625H98.4499V18.125H97.9499ZM95.0249 18.75L94.8116 18.2978L94.8083 18.2994L95.0249 18.75ZM92.1749 29V29.5H92.6749V29H92.1749ZM89.9499 29V16H88.9499V29H89.9499ZM89.4499 16.5H92.0499V15.5H89.4499V16.5ZM91.5499 16.005L91.5749 18.505L92.5749 18.495L92.5499 15.995L91.5499 16.005ZM92.0749 19H92.1249V18H92.0749V19ZM92.5318 18.7906C92.915 18.2541 93.3732 17.8039 93.9077 17.4374L93.3421 16.6126C92.71 17.0461 92.1682 17.5792 91.718 18.2094L92.5318 18.7906ZM93.9101 17.4357C94.4642 17.0509 95.082 16.7568 95.7666 16.5545L95.4832 15.5955C94.7011 15.8266 93.9856 16.1658 93.3397 16.6143L93.9101 17.4357ZM95.7637 16.5554C96.4675 16.352 97.1957 16.25 97.9499 16.25V15.25C97.1041 15.25 96.2824 15.3646 95.4861 15.5946L95.7637 16.5554ZM97.4499 15.75V18.125H98.4499V15.75H97.4499ZM97.9499 17.625C96.8164 17.625 95.7676 17.8468 94.8116 18.2978L95.2382 19.2022C96.0489 18.8198 96.9501 18.625 97.9499 18.625V17.625ZM94.8083 18.2994C93.876 18.7476 93.1176 19.3558 92.5476 20.1281L93.3522 20.7219C93.8155 20.0942 94.4405 19.5858 95.2415 19.2006L94.8083 18.2994ZM92.5476 20.1281C91.9691 20.9119 91.6749 21.7905 91.6749 22.75H92.6749C92.6749 22.0095 92.8974 21.3381 93.3522 20.7219L92.5476 20.1281ZM91.6749 22.75V29H92.6749V22.75H91.6749ZM92.1749 28.5H89.4499V29.5H92.1749V28.5ZM100.089 29H99.5886V29.5H100.089V29ZM100.089 10.75V10.25H99.5886V10.75H100.089ZM102.814 10.75H103.314V10.25H102.814V10.75ZM102.814 21.35H102.314V21.85H102.814V21.35ZM102.864 21.35V21.85H103.061L103.205 21.7153L102.864 21.35ZM108.589 16V15.5H108.391L108.247 15.6347L108.589 16ZM112.064 16L112.4 16.37L113.357 15.5H112.064V16ZM105.189 22.25L104.852 21.88L104.453 22.2431L104.845 22.6136L105.189 22.25ZM112.339 29V29.5H113.597L112.682 28.6364L112.339 29ZM108.864 29L108.514 29.3573L108.66 29.5H108.864V29ZM102.864 23.125L103.213 22.7677L103.068 22.625H102.864V23.125ZM102.814 23.125V22.625H102.314V23.125H102.814ZM102.814 29V29.5H103.314V29H102.814ZM100.589 29V10.75H99.5886V29H100.589ZM100.089 11.25H102.814V10.25H100.089V11.25ZM102.314 10.75V21.35H103.314V10.75H102.314ZM102.814 21.85H102.864V20.85H102.814V21.85ZM103.205 21.7153L108.93 16.3653L108.247 15.6347L102.522 20.9847L103.205 21.7153ZM108.589 16.5H112.064V15.5H108.589V16.5ZM111.727 15.63L104.852 21.88L105.525 22.62L112.4 16.37L111.727 15.63ZM104.845 22.6136L111.995 29.3636L112.682 28.6364L105.532 21.8864L104.845 22.6136ZM112.339 28.5H108.864V29.5H112.339V28.5ZM109.213 28.6427L103.213 22.7677L102.514 23.4823L108.514 29.3573L109.213 28.6427ZM102.864 22.625H102.814V23.625H102.864V22.625ZM102.314 23.125V29H103.314V23.125H102.314ZM102.814 28.5H100.089V29.5H102.814V28.5Z" fill="white" mask="url(#path-1-outside-1_11_2)"/>
<path d="M135 31V12H114L135 31Z" fill="white"/>
</svg>
